<svg xmlns="http://www.w3.org/2000/svg" viewBox="0 0 32 32">
  <rect width="32" height="32" rx="8" fill="#2563eb"/>
  <g transform="translate(4,4)" fill="none" stroke="#ffffff" stroke-width="2" stroke-linecap="round" stroke-linejoin="round">
    <path d="M7 19H4.8a2 2 0 0 1-1.7-3l1.5-2.5" />
    <path d="m14 16-3 3 3 3" />
    <path d="M8.3 9 5 14l1.5 1" />
    <path d="M11 3.4 9.5 6 12 7" />
    <path d="m14.5 6-1.6-2.7a2 2 0 0 0-3.4 0L8 5" />
    <path d="M19.7 14 18 17l-3-1" />
    <path d="M22 12.3 20.5 9 18 10" />
  </g>
</svg>
